<svg width="924" height="225" viewBox="0 0 924 225" fill="none" xmlns="http://www.w3.org/2000/svg">
<g filter="url(#filter0_d_232_3)">
<rect x="4" y="17" width="200" height="200" rx="20" fill="white"/>
</g>
<path d="M129.949 38L59 117.5H98.2203L80.1525 197L117.39 149.384L150 105.544H117.39L129.949 38Z" fill="#2D4AF0" stroke="#2D4AF0"/>
<path d="M250.75 23H263.25V110H250.75V23ZM295.438 61.5625L295.5 110H283V45.5H294.5L295.375 52.5625C299.958 48.7292 305.292 46.2292 311.375 45.0625C313.333 44.6875 315.25 44.5 317.125 44.5C324.917 44.5 330.792 47.7917 334.75 54.375C342 47.7917 349.583 44.5 357.5 44.5C365.333 44.5 371.042 46.8542 374.625 51.5625C378.208 56.3542 380 64.2708 380 75.3125V110H367.5V75.75C367.5 64.9167 364.896 58.4375 359.688 56.3125C357.938 55.6042 355.896 55.25 353.562 55.25C347.979 55.25 342.854 57.25 338.188 61.25V110H325.688V75.25C325.688 67.8333 324.583 62.625 322.375 59.625C320.25 56.7083 316.438 55.25 310.938 55.25C305.479 55.25 300.312 57.3542 295.438 61.5625ZM415.875 111C410.667 111 405.396 110.625 400.062 109.875V98.8125C405.479 100.104 410.979 100.75 416.562 100.75C427.729 100.75 433.312 98.3958 433.312 93.6875C433.312 91.8958 432.875 90.5625 432 89.6875C430.708 88.3125 428.667 86.9375 425.875 85.5625L416.75 81.375C410.833 78.4167 407 76.0417 405.25 74.25C401.958 70.9167 400.312 66.9583 400.312 62.375C400.312 57.2083 402.708 53 407.5 49.75C412.667 46.25 419.917 44.5 429.25 44.5C433.958 44.5 438.708 44.8333 443.5 45.5V56.1875C438.25 55.2292 433.667 54.75 429.75 54.75C425.875 54.75 422.854 55 420.688 55.5C418.562 56 416.958 56.625 415.875 57.375C414.167 58.5417 413.312 60.0625 413.312 61.9375C413.312 63.7708 413.896 65.2708 415.062 66.4375C416.271 67.5625 418.146 68.7917 420.688 70.125L429.875 74.5625C435.875 77.6875 439.729 80.0833 441.438 81.75C444.688 84.9167 446.312 88.8958 446.312 93.6875C446.312 98.8125 443.729 102.938 438.562 106.062C433.146 109.354 425.583 111 415.875 111Z" fill="white"/>
<path d="M249.625 129H305.812V139.875H262.125V165.5H295.188V176H262.125V205H305.812V216H249.625V129ZM327.125 123H339.625V191.562C339.625 199.812 341.5 204.667 345.25 206.125C346.5 206.625 347.833 206.875 349.25 206.875C350.667 206.875 351.938 206.708 353.062 206.375V216L350.75 216.25C350 216.333 349.271 216.375 348.562 216.375C340.562 216.375 334.792 213.75 331.25 208.5C328.5 204.375 327.125 198.75 327.125 191.625V123ZM397.312 217C373.729 217 361.938 205.479 361.938 182.438C361.938 172.521 365.208 164.583 371.75 158.625C377.625 153.208 384.333 150.5 391.875 150.5C400.083 150.5 406.5 153.25 411.125 158.75C415.417 163.875 417.562 170.729 417.562 179.312V184.188H374.938C374.938 195.979 379.75 203.188 389.375 205.812C391.667 206.438 395.188 206.75 399.938 206.75C404.729 206.75 409.417 206.104 414 204.812V215.375C409.417 216.458 403.854 217 397.312 217ZM405.062 175C405.062 171 403.958 167.625 401.75 164.875C399.167 161.708 395.604 160.125 391.062 160.125C386.271 160.125 382.375 161.646 379.375 164.688C376.625 167.521 375.25 170.958 375.25 175H405.062ZM477.625 215.812C475.125 216.604 470.792 217 464.625 217C458.458 217 453.208 216.25 448.875 214.75C444.583 213.25 440.917 211.042 437.875 208.125C431.583 202.083 428.438 193.708 428.438 183C428.438 172.625 432.208 164.458 439.75 158.5C446.5 153.167 454.792 150.5 464.625 150.5C470.708 150.5 474.875 150.708 477.125 151.125V162.25C473.625 161.125 469.625 160.562 465.125 160.562C460.667 160.562 456.958 161.188 454 162.438C451.042 163.646 448.625 165.292 446.75 167.375C443.208 171.333 441.438 176.542 441.438 183C441.438 193.917 445.375 201.188 453.25 204.812C456.042 206.104 458.771 206.75 461.438 206.75C464.104 206.75 466.146 206.688 467.562 206.562C469.021 206.438 470.396 206.271 471.688 206.062C474.438 205.604 476.417 205.125 477.625 204.625V215.812ZM518.375 206.125C519.75 206.625 521.833 206.875 524.625 206.875C527.417 206.875 529.75 206.542 531.625 205.875V215.875C530.75 216.083 529.479 216.208 527.812 216.25L523.875 216.375C523 216.375 522.333 216.375 521.875 216.375C513.833 216.375 507.896 213.75 504.062 208.5C500.979 204.25 499.438 198.625 499.438 191.625V161.062H490.188V155.188L499.438 151.5L502.438 135.5H511.938V151.5H531.938V161.062H511.938V191.562C511.938 199.729 514.083 204.583 518.375 206.125ZM589.562 162.938C587.271 162.271 584.521 161.938 581.312 161.938C578.146 161.938 575.542 162.271 573.5 162.938C571.458 163.562 569.667 164.333 568.125 165.25C565.292 166.917 563.229 168.792 561.938 170.875V216H549.438V151.5H561.438L561.938 160.438C565.062 156.521 569.625 153.583 575.625 151.625C577.792 150.875 580.271 150.5 583.062 150.5C585.854 150.5 588.021 150.708 589.562 151.125V162.938ZM616.5 132.75C616.5 135.125 615.708 136.958 614.125 138.25C612.583 139.5 610.646 140.125 608.312 140.125C605.979 140.125 604.042 139.5 602.5 138.25C601 136.958 600.25 135.125 600.25 132.75C600.25 130.333 601 128.5 602.5 127.25C604.042 126 605.979 125.375 608.312 125.375C610.646 125.375 612.583 126 614.125 127.25C615.708 128.5 616.5 130.333 616.5 132.75ZM601.875 151.5H614.375V216H601.875V151.5ZM680.375 215.812C677.875 216.604 673.542 217 667.375 217C661.208 217 655.958 216.25 651.625 214.75C647.333 213.25 643.667 211.042 640.625 208.125C634.333 202.083 631.188 193.708 631.188 183C631.188 172.625 634.958 164.458 642.5 158.5C649.25 153.167 657.542 150.5 667.375 150.5C673.458 150.5 677.625 150.708 679.875 151.125V162.25C676.375 161.125 672.375 160.562 667.875 160.562C663.417 160.562 659.708 161.188 656.75 162.438C653.792 163.646 651.375 165.292 649.5 167.375C645.958 171.333 644.188 176.542 644.188 183C644.188 193.917 648.125 201.188 656 204.812C658.792 206.104 661.521 206.75 664.188 206.75C666.854 206.75 668.896 206.688 670.312 206.562C671.771 206.438 673.146 206.271 674.438 206.062C677.188 205.604 679.167 205.125 680.375 204.625V215.812ZM700.812 204.5C699.438 202.125 698.333 199.333 697.5 196.125C696.708 192.917 696.312 188.729 696.312 183.562C696.312 178.396 697.417 173.646 699.625 169.312C701.875 164.938 704.792 161.354 708.375 158.562C715.333 153.188 723.979 150.5 734.312 150.5C739.688 150.5 743.75 150.625 746.5 150.875C746.5 150.875 748.521 151.083 752.562 151.5V216H741.312L740.812 208.562C738.312 211.896 734.5 214.375 729.375 216C727.417 216.625 725.396 216.938 723.312 216.938C721.271 216.938 719.25 216.729 717.25 216.312C715.25 215.896 713.25 215.208 711.25 214.25C709.292 213.292 707.417 212.021 705.625 210.438C703.833 208.812 702.229 206.833 700.812 204.5ZM740.062 160.688C737.396 160.354 734.729 160.188 732.062 160.188C729.438 160.188 726.625 160.667 723.625 161.625C720.625 162.542 718.062 164 715.938 166C711.521 170.167 709.312 176.521 709.312 185.062C709.312 193.146 711.208 199.125 715 203C717.875 205.875 721.333 207.312 725.375 207.312C730.583 207.312 734.875 205.417 738.25 201.625C739.083 200.667 739.688 199.812 740.062 199.062V160.688ZM775.25 123H787.75V191.562C787.75 199.812 789.625 204.667 793.375 206.125C794.625 206.625 795.958 206.875 797.375 206.875C798.792 206.875 800.062 206.708 801.188 206.375V216L798.875 216.25C798.125 216.333 797.396 216.375 796.688 216.375C788.688 216.375 782.917 213.75 779.375 208.5C776.625 204.375 775.25 198.75 775.25 191.625V123ZM831.125 217C825.917 217 820.646 216.625 815.312 215.875V204.812C820.729 206.104 826.229 206.75 831.812 206.75C842.979 206.75 848.562 204.396 848.562 199.688C848.562 197.896 848.125 196.562 847.25 195.688C845.958 194.312 843.917 192.938 841.125 191.562L832 187.375C826.083 184.417 822.25 182.042 820.5 180.25C817.208 176.917 815.562 172.958 815.562 168.375C815.562 163.208 817.958 159 822.75 155.75C827.917 152.25 835.167 150.5 844.5 150.5C849.208 150.5 853.958 150.833 858.75 151.5V162.188C853.5 161.229 848.917 160.75 845 160.75C841.125 160.75 838.104 161 835.938 161.5C833.812 162 832.208 162.625 831.125 163.375C829.417 164.542 828.562 166.062 828.562 167.938C828.562 169.771 829.146 171.271 830.312 172.438C831.521 173.562 833.396 174.792 835.938 176.125L845.125 180.562C851.125 183.688 854.979 186.083 856.688 187.75C859.938 190.917 861.562 194.896 861.562 199.688C861.562 204.812 858.979 208.938 853.812 212.062C848.396 215.354 840.833 217 831.125 217Z" fill="white"/>
<defs>
<filter id="filter0_d_232_3" x="0" y="17" width="208" height="208" filterUnits="userSpaceOnUse" color-interpolation-filters="sRGB">
<feFlood flood-opacity="0" result="BackgroundImageFix"/>
<feColorMatrix in="SourceAlpha" type="matrix" values="0 0 0 0 0 0 0 0 0 0 0 0 0 0 0 0 0 0 127 0" result="hardAlpha"/>
<feOffset dy="4"/>
<feGaussianBlur stdDeviation="2"/>
<feComposite in2="hardAlpha" operator="out"/>
<feColorMatrix type="matrix" values="0 0 0 0 0.176471 0 0 0 0 0.290196 0 0 0 0 0.941176 0 0 0 0.25 0"/>
<feBlend mode="normal" in2="BackgroundImageFix" result="effect1_dropShadow_232_3"/>
<feBlend mode="normal" in="SourceGraphic" in2="effect1_dropShadow_232_3" result="shape"/>
</filter>
</defs>
</svg>
